Coordinates
version=1
nRows=34
nColumns=33
inDegrees=yes

Units are S.I. units (second, meters, Newtons, ...)
Angles are in degrees.

endheader
time	ground_thorax_rot_x	ground_thorax_rot_y	ground_thorax_rot_z	ground_thorax_tx	ground_thorax_ty	ground_thorax_tz	clav_prot_r	clav_elev_r	scapula_abduction_r	scapula_elevation_r	scapula_upward_rot_r	scapula_winging_r	shoulder_elv_r	plane_of_elev_r	axial_rot_r	elbow_flexion_r	pro_sup_r	wrist_flex_r	wrist_dev_r	clav_prot_l	clav_elev_l	scapula_abduction_l	scapula_elevation_l	scapula_upward_rot_l	scapula_winging_l	shoulder_elv_l	plane_of_elev_l	axial_rot_l	elbow_flexion_l	pro_sup_l	wrist_flex_l	wrist_dev_l	
7.0700	37.658741	-0.367312	6.454628	-67.097147	806.146430	4.261994	14.347785	39.591322	44.999788	39.716206	-20.205692	-2604.199320	61.905175	30.703924	59.906945	730.767875	-347.151045	17.942215	10.905286	7.582023	-45.000000	-44.996180	45.000000	-19.711688	810.384291	-4252.031430	20.175037	-39.217004	2525.840827	11.326531	15.113185	-18.974350	
7.0800	37.492426	-0.079082	6.943659	-65.820817	803.879136	4.745110	14.359315	39.144058	44.999620	39.321207	-20.388542	-2604.236315	61.711698	30.512829	60.809661	730.522598	-347.993923	17.775898	10.968777	7.548636	-45.000000	-44.993407	45.000000	-20.591104	810.085582	-4252.049358	20.201905	-38.893232	2525.625480	11.106906	15.088863	-18.812073	
7.0900	37.340780	0.226652	7.457734	-64.641662	801.698110	5.203650	14.368410	38.852139	44.999319	38.975774	-20.623518	-2604.315292	61.474160	30.357289	61.728923	730.288929	-348.804121	17.618159	11.002751	7.491487	-45.000000	-44.987494	45.000000	-21.512566	809.847155	-4252.098920	20.267101	-38.624489	2525.409386	10.905658	15.003756	-18.669487	
7.1000	37.201805	0.339741	7.771581	-63.664094	799.703144	5.613651	14.340307	38.522207	44.998780	38.607456	-20.669707	-2604.355204	61.329528	30.200342	62.506795	730.105161	-349.522300	17.483321	11.085352	7.487838	-45.000000	-44.979541	45.000000	-21.914863	809.682196	-4252.196105	20.278626	-38.393564	2525.171931	10.790877	14.960986	-18.521528	
7.1100	37.075990	0.358969	7.999727	-62.910249	797.907638	5.966552	14.298333	38.205117	44.997813	38.253637	-20.654792	-2604.385642	61.223172	30.052748	63.196220	729.954101	-350.118802	17.365840	11.178160	7.473466	-45.000000	-44.957931	45.000000	-22.098679	809.563376	-4252.290585	20.258060	-38.232966	2524.947316	10.737353	14.918820	-18.387420	
7.1200	36.966308	0.284395	8.145225	-62.414776	796.336848	6.251191	14.248638	37.974161	44.996086	37.933029	-20.598317	-2604.415294	61.137793	29.927466	63.797480	729.838161	-350.571294	17.271719	11.273311	7.495019	-45.000000	-44.939773	45.000000	-22.036054	809.544648	-4252.420640	20.238500	-38.109865	2524.719140	10.729835	14.853911	-18.270562	
7.1300	36.877472	0.172151	8.262029	-62.188657	794.991448	6.461947	14.206016	37.787846	44.992980	37.662548	-20.558802	-2604.440020	61.059469	29.811251	64.333067	729.733637	-350.856898	17.192580	11.355504	7.487523	-45.000000	-44.923923	45.000000	-21.937055	809.550347	-4252.513332	20.203946	-38.049399	2524.525484	10.755626	14.770014	-18.180103	
7.1400	36.814214	0.044523	8.374471	-62.230943	793.859671	6.597586	14.178499	37.689146	44.987448	37.455914	-20.572840	-2604.475923	60.975688	29.718929	64.824815	729.649182	-350.973993	17.134461	11.414937	7.503723	-45.000000	-44.923019	45.000000	-21.825339	809.621888	-4252.608262	20.188892	-38.005800	2524.346667	10.794341	14.650912	-18.115773	
7.1500	36.777758	-0.095027	8.478981	-62.540037	792.928411	6.659877	14.165004	37.629456	44.977454	37.309449	-20.623789	-2604.501851	60.896034	29.626610	65.266474	729.570233	-350.920144	17.092495	11.449099	7.484109	-45.000000	-44.918713	45.000000	-21.779605	809.669743	-4252.640477	20.156268	-38.001651	2524.219857	10.856638	14.522030	-18.081841	
7.1600	36.768353	-0.248318	8.578860	-63.114635	792.183345	6.653633	14.167920	37.621189	44.959783	37.224721	-20.723731	-2604.526713	60.822525	29.552920	65.675838	729.513228	-350.702937	17.073164	11.468974	7.492687	-45.000000	-44.918499	45.000000	-21.735506	809.757706	-4252.681629	20.145788	-38.000758	2524.100855	10.948618	14.367587	-18.066416	
7.1700	36.783062	-0.391185	8.699740	-63.955394	791.609578	6.585994	14.180719	37.641061	44.927489	37.199574	-20.887768	-2604.529505	60.768540	29.477731	66.048784	729.472467	-350.317939	17.074703	11.462031	7.476348	-45.000000	-44.897184	45.000000	-21.805268	809.806058	-4252.669172	20.118462	-38.039629	2524.023249	11.093016	14.199159	-18.075221	
7.1800	36.815373	-0.508596	8.869519	-65.064716	791.192180	6.465525	14.214933	37.659567	44.871427	37.230556	-21.146421	-2604.516905	60.739807	29.419534	66.398956	729.469635	-349.757385	17.100833	11.445343	7.494999	-45.000000	-44.843390	45.000000	-21.967725	809.878804	-4252.657172	20.108084	-38.087162	2523.955014	11.297883	14.006851	-18.094678	
7.1900	36.861966	-0.574195	9.115059	-66.446988	790.916307	6.300943	14.262561	37.720408	44.766018	37.337360	-21.520311	-2604.448702	60.739138	29.359893	66.690891	729.498554	-349.010283	17.152483	11.395627	7.516134	-45.000000	-44.716571	45.000000	-22.324660	809.913037	-4252.595738	20.085750	-38.165582	2523.935846	11.580239	13.793396	-18.138043	
7.2000	36.918896	-0.551342	9.481388	-68.107244	790.767848	6.100046	14.337382	37.782337	44.591115	37.532239	-22.076669	-2604.321618	60.767143	29.325253	66.939318	729.566495	-348.065126	17.224107	11.334748	7.583070	-45.000000	-44.500380	45.000000	-22.903455	809.959344	-4252.531076	20.086570	-38.250590	2523.934389	11.940363	13.554028	-18.187945	
7.2100	36.986522	-0.311877	10.124743	-70.050304	790.733366	5.868895	14.483592	37.867188	44.240873	37.900626	-23.103521	-2603.981631	60.892638	29.356216	66.925361	729.665637	-346.854726	17.318319	11.231211	7.726379	-45.000000	-44.082474	45.000000	-23.986942	809.945235	-4252.419957	20.081121	-38.379471	2523.979101	12.416324	13.300042	-18.259925	
7.2200	37.064416	0.157670	11.067855	-72.278898	790.800769	5.611457	14.689679	37.942074	43.718500	38.447443	-24.630221	-2603.458558	61.100382	29.486071	66.684268	729.795203	-345.396759	17.420151	11.107810	7.933804	-45.000000	-43.419427	45.000000	-25.617910	809.872872	-4252.275177	20.090356	-38.521255	2524.042683	12.969724	13.035545	-18.330680	
7.2300	37.145332	0.864258	12.317756	-74.792960	790.959264	5.329619	14.948136	38.044229	43.019560	39.178181	-26.660051	-2602.729111	61.403884	29.698008	66.197601	729.940668	-343.764902	17.527739	10.952280	8.195831	-45.000000	-42.506311	45.000000	-27.811416	809.725438	-4252.075783	20.096066	-38.707527	2524.132580	13.559722	12.762164	-18.406048	
7.2400	37.228574	1.596349	13.602731	-77.588321	791.199736	5.023609	15.161799	38.167046	42.310461	39.940314	-28.708534	-2602.045662	61.688425	29.929021	65.832917	730.085986	-342.128277	17.620878	10.790468	8.418037	-45.000000	-41.513660	45.000000	-30.105178	809.568085	-4251.859586	20.101528	-38.906285	2524.212614	14.088848	12.496228	-18.458524	
7.2500	37.309615	2.447274	15.025752	-80.657246	791.514999	4.692494	15.394376	38.302945	41.525471	40.816811	-30.969936	-2601.284735	62.025446	30.191028	65.397403	730.218752	-340.600727	17.706108	10.624318	8.648265	-45.000000	-40.408398	45.000000	-32.669103	809.398102	-4251.603828	20.096258	-39.210007	2524.300882	14.533211	12.254640	-18.502933	
7.2600	37.383987	3.267715	16.385594	-83.987683	791.899976	4.334949	15.579554	38.450931	40.784002	41.698935	-33.086599	-2600.627272	62.333598	30.429162	65.139063	730.334570	-339.306736	17.772208	10.474545	8.835009	-45.000000	-39.325929	45.000000	-35.173425	809.266125	-4251.328446	20.087463	-39.594157	2524.383608	14.827587	12.046192	-18.526194	
7.2700	37.441076	4.101978	17.733126	-87.564474	792.352089	3.949770	15.777928	38.571463	40.051941	42.610307	-35.162616	-2599.989034	62.663622	30.630738	64.939876	730.434175	-338.275438	17.831411	10.345025	9.043354	-45.000000	-38.276762	45.000000	-37.664724	809.197880	-4251.031731	20.071171	-40.116147	2524.474561	14.988561	11.885872	-18.546660	
7.2800	37.477548	4.762400	18.829543	-91.369559	792.871479	3.536357	15.896364	38.666620	39.444930	43.369631	-36.815117	-2599.570479	62.932250	30.754495	65.030175	730.519020	-337.475896	17.875604	10.228994	9.203300	-45.000000	-37.418035	45.000000	-39.728474	809.234304	-4250.741306	20.034538	-40.710542	2524.569453	15.026236	11.771951	-18.560806	
7.2900	37.488411	5.396214	19.871299	-95.383470	793.461053	3.094895	16.035202	38.691066	38.844858	44.065004	-38.436842	-2599.180911	63.235136	30.867369	65.090080	730.591388	-336.795289	17.916313	10.126804	9.400221	-45.000000	-36.640819	45.000000	-41.664008	809.352366	-4250.450609	19.980867	-41.418309	2524.679806	15.017973	11.705916	-18.586537	
7.3000	37.479968	5.846060	20.663966	-99.585166	794.126236	2.626547	16.088369	38.671007	38.347087	44.563873	-39.717199	-2598.984830	63.489751	30.943835	65.299894	730.661102	-336.169402	17.945920	10.026553	9.558507	-45.000000	-36.042133	45.000000	-43.155195	809.550508	-4250.177350	19.894675	-42.151861	2524.797270	14.975559	11.664989	-18.617421	
7.3100	37.455057	6.116171	21.221297	-103.953563	794.874521	2.133323	16.076893	38.591896	37.947331	44.881396	-40.699288	-2598.944479	63.704802	30.984978	65.617723	730.728249	-335.574503	17.969852	9.936923	9.692435	-45.000000	-35.615397	45.000000	-44.205115	809.831110	-4249.928519	19.773258	-42.913355	2524.923850	14.923405	11.646427	-18.659421	
7.3200	37.425116	6.132382	21.443405	-108.467583	795.714770	1.618018	15.952506	38.482277	37.686415	44.973590	-41.220247	-2599.129136	63.838596	30.975839	66.141832	730.794725	-334.990340	17.985353	9.846873	9.755271	-45.000000	-35.409132	45.000000	-44.658115	810.189342	-4249.715482	19.606984	-43.676917	2525.058318	14.879161	11.639298	-18.711364	
7.3300	37.395459	6.065949	21.542700	-113.106987	796.656381	1.084033	15.810349	38.335686	37.459481	45.000000	-41.650913	-2599.353731	63.971570	30.966477	66.629280	730.862161	-334.401788	18.001359	9.766862	9.811771	-45.000000	-35.287150	45.000000	-44.888586	810.584276	-4249.515677	19.411129	-44.480523	2525.208735	14.871241	11.645064	-18.780713	
7.3400	37.368765	5.952315	21.559363	-117.851684	797.708555	0.535350	15.659266	38.168505	37.250801	45.000000	-42.055710	-2599.587081	64.111831	30.964708	67.051037	730.935428	-333.781134	18.018963	9.689645	9.875321	-45.000000	-35.221888	45.000000	-44.976692	811.000524	-4249.325724	19.194430	-45.316546	2525.369529	14.918126	11.653236	-18.866490	
7.3500	37.342992	5.818802	21.533097	-122.682243	798.879929	-0.023625	15.524137	37.992727	37.051706	45.000000	-42.496989	-2599.794570	64.275442	30.971361	67.374648	731.013101	-333.106208	18.042249	9.612974	9.957812	-45.000000	-35.187893	45.000000	-45.000000	811.434570	-4249.137521	18.967212	-46.172220	2525.541031	15.034293	11.667834	-18.971722	
7.3600	37.318482	5.675028	21.477988	-127.579166	800.178215	-0.588111	15.403161	37.828358	36.861793	45.000000	-42.962263	-2599.985213	64.456041	30.982108	67.638184	731.095490	-332.360007	18.069765	9.527272	10.050690	-45.000000	-35.172652	45.000000	-45.000000	811.879108	-4248.943567	18.735915	-47.056847	2525.724393	15.235430	11.680101	-19.096063	
7.3700	37.296882	5.528803	21.405120	-132.523198	801.610469	-1.153065	15.301493	37.676564	36.677156	45.000000	-43.438603	-2600.163188	64.652373	30.991107	67.867212	731.185414	-331.536980	18.102215	9.430434	10.153976	-45.000000	-35.165545	45.000000	-45.000000	812.331672	-4248.740124	18.503854	-47.966608	2525.922300	15.531687	11.682825	-19.240039	
7.3800	37.281374	5.379874	21.315442	-137.494656	803.182890	-1.713317	15.210628	37.535537	36.501706	45.000000	-43.890382	-2600.346692	64.842457	30.992693	68.133629	731.284635	-330.639951	18.137803	9.319136	10.265376	-45.000000	-35.160301	45.000000	-45.000000	812.788387	-4248.529960	18.272785	-48.912652	2526.131911	15.930485	11.666229	-19.401138	
7.3900	37.275995	5.224464	21.205739	-142.474251	804.900983	-2.263657	15.125272	37.404857	36.331873	45.000000	-44.280721	-2600.541686	65.017432	30.979968	68.465199	731.394570	-329.682368	18.177462	9.196832	10.379509	-45.000000	-35.148862	45.000000	-45.000000	813.243974	-4248.310897	18.043702	-49.886017	2526.352392	16.431711	11.628355	-19.577726	
7.4000	37.281780	5.069028	21.081749	-147.442254	806.768457	-2.799248	15.048693	37.286221	36.167808	45.000000	-44.581321	-2600.761342	65.162011	30.945556	68.930738	731.512484	-328.683209	18.218954	9.060732	10.495884	-45.000000	-35.121880	45.000000	-45.000000	813.700035	-4248.085569	17.821397	-50.903896	2526.581831	17.035616	11.568440	-19.767883	
